<svg xmlns="http://www.w3.org/2000/svg" xmlns:xlink="http://www.w3.org/1999/xlink" fill="none" version="1.1" width="765" height="100" viewBox="0 0 765 100"><g><g><g><g></g><g><path d="M4.6261399999999995,81.99955625C3.305082,81.99955625,2.346943,80.74145625,2.6980898,79.46785625L19.566,18.29138625C20.287,15.67620525,23.347,14.52206525,25.6155,16.00962825L47.8104,30.56365625C49.1404,31.43575625,50.8606,31.43715625,52.192,30.56705625L74.481,16.00164425C76.7516,14.51787825,79.8092,15.67628425,80.5267,18.29205625L97.3064,79.47045625C97.6555,80.74345625,96.6976,81.99955625,95.3776,81.99955625L73.9544,81.99955625C77.8543,77.48405625000001,80.0001,71.71665625,80.0001,65.75015625L80.0001,65.05385625C80.0001,59.21775625,77.8771,53.58085625,74.0273,49.19455625L71.2779,35.39425625C71.1164,34.58345625,70.4047,33.99955625,69.5779,33.99955625C69.2028,33.99955625,68.8379,34.12115625,68.5378,34.34615625L58.1719,42.120656249999996C57.4337,42.67425625,56.4789,42.85065625,55.5916,42.59705625C51.937,41.55295625,48.0631,41.55295625,44.4085,42.59705625C43.5212,42.85065625,42.5664,42.67425625,41.8282,42.120656249999996L31.4577,34.34275625C31.1607,34.11995625,30.7993,33.99955625,30.428,33.99955625C29.6005,33.99955625,28.8908,34.58995625,28.7403,35.40355625L26.0729,49.82405625C22.181,53.78165625,20.0001,59.11005625,20.0001,64.66065625L20.0001,65.97975625000001C20.0001,71.80015625,22.0822,77.42865625,25.87,81.84785625L26.0001,81.99955625L4.6261399999999995,81.99955625Z" fill-rule="evenodd" fill="#29E154" fill-opacity="1"/></g><g><path d="M39,70L45,70L45,56L39.909091,56L39,70ZM61,70L55,70L55,56L60.090900000000005,56L61,70Z" fill="#000000" fill-opacity="1"/></g></g></g><g><path d="M117.98,72L148.76,72L148.76,64.08L127.7,64.08L127.7,30L117.98,30L117.98,72ZM168.68,72.47999999999999C178.94,72.47999999999999,186.38,65.58,186.38,55.86C186.38,46.14,178.94,39.239999999999995,168.68,39.239999999999995C158.42000000000002,39.239999999999995,150.92000000000002,46.14,150.92000000000002,55.86C150.92000000000002,65.58,158.42000000000002,72.47999999999999,168.68,72.47999999999999ZM168.68,64.8C164,64.8,160.4,61.44,160.4,55.86C160.4,50.28,164,46.92,168.68,46.92C173.36,46.92,176.9,50.28,176.9,55.86C176.9,61.44,173.36,64.8,168.68,64.8ZM212.24,39.239999999999995C207.86,39.239999999999995,204.07999999999998,40.739999999999995,201.56,43.5L201.56,39.72L192.62,39.72L192.62,72L201.98000000000002,72L201.98000000000002,56.04C201.98000000000002,50.1,205.22,47.34,209.72,47.34C213.86,47.34,216.26,49.74,216.26,54.96L216.26,72L225.62,72L225.62,53.52C225.62,43.68,219.86,39.239999999999995,212.24,39.239999999999995ZM258.86,39.72L258.86,43.86C256.4,40.739999999999995,252.68,39.239999999999995,248.18,39.239999999999995C239.24,39.239999999999995,232.04000000000002,45.42,232.04000000000002,54.84C232.04000000000002,64.25999999999999,239.24,70.44,248.18,70.44C252.38,70.44,255.92,69.12,258.38,66.42L258.38,67.8C258.38,73.62,255.5,76.62,248.9,76.62C244.76,76.62,240.26,75.18,237.5,72.96000000000001L233.78,79.68C237.56,82.62,243.5,84.12,249.62,84.12C261.26,84.12,267.74,78.6,267.74,66.6L267.74,39.72L258.86,39.72ZM250.04,62.76C245.12,62.76,241.52,59.58,241.52,54.84C241.52,50.1,245.12,46.92,250.04,46.92C254.96,46.92,258.5,50.1,258.5,54.84C258.5,59.58,254.96,62.76,250.04,62.76ZM297.2,72.72C304.52,72.72,310.58000000000004,70.08,314.53999999999996,65.22L308.3,59.46C305.48,62.76,301.94,64.44,297.74,64.44C289.88,64.44,284.3,58.92,284.3,51C284.3,43.08,289.88,37.56,297.74,37.56C301.94,37.56,305.48,39.239999999999995,308.3,42.480000000000004L314.53999999999996,36.72C310.58000000000004,31.92,304.52,29.28,297.26,29.28C284.18,29.28,274.46000000000004,38.34,274.46000000000004,51C274.46000000000004,63.66,284.18,72.72,297.2,72.72ZM333.2,39.239999999999995C328.03999999999996,39.239999999999995,322.82,40.620000000000005,319.28,43.14L322.64,49.68C324.98,47.82,328.52,46.68,331.94,46.68C336.98,46.68,339.38,49.02,339.38,53.04L331.94,53.04C322.1,53.04,318.08000000000004,57,318.08000000000004,62.7C318.08000000000004,68.28,322.58000000000004,72.47999999999999,330.14,72.47999999999999C334.88,72.47999999999999,338.24,70.92,339.98,67.97999999999999L339.98,72L348.74,72L348.74,53.58C348.74,43.8,343.03999999999996,39.239999999999995,333.2,39.239999999999995ZM332.48,66.18C329.18,66.18,327.2,64.62,327.2,62.28C327.2,60.12,328.58000000000004,58.5,332.96000000000004,58.5L339.38,58.5L339.38,61.8C338.3,64.74000000000001,335.6,66.18,332.48,66.18ZM375.5,63.84C374.48,64.62,373.1,65.03999999999999,371.72,65.03999999999999C369.2,65.03999999999999,367.7,63.54,367.7,60.78L367.7,47.64L375.74,47.64L375.74,40.44L367.7,40.44L367.7,32.58L358.34000000000003,32.58L358.34000000000003,40.44L353.36,40.44L353.36,47.64L358.34000000000003,47.64L358.34000000000003,60.9C358.34000000000003,68.58,362.78,72.47999999999999,370.4,72.47999999999999C373.28,72.47999999999999,376.1,71.82,378.02,70.44L375.5,63.84ZM381.5,58.86L398.48,58.86L398.48,51.36L381.5,51.36L381.5,58.86ZM438.26,37.8L438.26,30L406.52,30L406.52,72L416.24,72L416.24,56.7L435.68,56.7L435.68,48.9L416.24,48.9L416.24,37.8L438.26,37.8ZM444.2,72L453.56,72L453.56,27.48L444.2,27.48L444.2,72ZM475.28,39.239999999999995C470.12,39.239999999999995,464.9,40.620000000000005,461.36,43.14L464.72,49.68C467.06,47.82,470.6,46.68,474.02,46.68C479.06,46.68,481.46,49.02,481.46,53.04L474.02,53.04C464.18,53.04,460.16,57,460.16,62.7C460.16,68.28,464.66,72.47999999999999,472.22,72.47999999999999C476.96,72.47999999999999,480.32,70.92,482.06,67.97999999999999L482.06,72L490.82,72L490.82,53.58C490.82,43.8,485.12,39.239999999999995,475.28,39.239999999999995ZM474.56,66.18C471.26,66.18,469.28,64.62,469.28,62.28C469.28,60.12,470.66,58.5,475.04,58.5L481.46,58.5L481.46,61.8C480.38,64.74000000000001,477.68,66.18,474.56,66.18ZM510.14,72.47999999999999C519.8,72.47999999999999,525.38,68.22,525.38,62.22C525.38,49.5,505.88,54.84,505.88,49.32C505.88,47.64,507.68,46.32,511.88,46.32C514.8199999999999,46.32,518,46.92,521.1800000000001,48.72L524.3,42.06C521.24,40.260000000000005,516.3199999999999,39.239999999999995,511.88,39.239999999999995C502.46,39.239999999999995,496.94,43.56,496.94,49.68C496.94,62.58,516.44,57.18,516.44,62.46C516.44,64.25999999999999,514.8199999999999,65.4,510.5,65.4C506.54,65.4,502.16,64.14,499.28,62.28L496.16,69C499.16,70.97999999999999,504.68,72.47999999999999,510.14,72.47999999999999ZM550.76,39.239999999999995C546.62,39.239999999999995,543.02,40.56,540.5,43.08L540.5,27.48L531.14,27.48L531.14,72L540.5,72L540.5,56.04C540.5,50.1,543.74,47.34,548.24,47.34C552.38,47.34,554.78,49.74,554.78,54.96L554.78,72L564.14,72L564.14,53.52C564.14,43.68,558.38,39.239999999999995,550.76,39.239999999999995ZM571.4,58.86L588.38,58.86L588.38,51.36L571.4,51.36L571.4,58.86ZM617,72.72C630.2,72.72,639.98,63.54,639.98,51C639.98,38.46,630.2,29.28,617,29.28C603.74,29.28,594.02,38.519999999999996,594.02,51C594.02,63.48,603.74,72.72,617,72.72ZM617,64.44C609.5,64.44,603.86,58.98,603.86,51C603.86,43.019999999999996,609.5,37.56,617,37.56C624.5,37.56,630.14,43.019999999999996,630.14,51C630.14,58.98,624.5,64.44,617,64.44ZM687.98,39.239999999999995C683.12,39.239999999999995,678.92,41.22,676.34,44.519999999999996C674.06,40.980000000000004,670.22,39.239999999999995,665.72,39.239999999999995C661.58,39.239999999999995,657.98,40.68,655.58,43.44L655.58,39.72L646.64,39.72L646.64,72L656,72L656,55.8C656,50.04,658.94,47.34,663.08,47.34C666.98,47.34,669.2,49.74,669.2,54.96L669.2,72L678.56,72L678.56,55.8C678.56,50.04,681.5,47.34,685.7,47.34C689.48,47.34,691.82,49.74,691.82,54.96L691.82,72L701.18,72L701.18,53.52C701.18,43.68,695.66,39.239999999999995,687.98,39.239999999999995ZM729.2,39.239999999999995C724.82,39.239999999999995,721.04,40.739999999999995,718.52,43.5L718.52,39.72L709.58,39.72L709.58,72L718.94,72L718.94,56.04C718.94,50.1,722.18,47.34,726.68,47.34C730.82,47.34,733.22,49.74,733.22,54.96L733.22,72L742.58,72L742.58,53.52C742.58,43.68,736.82,39.239999999999995,729.2,39.239999999999995ZM755.72,35.22C759.2,35.22,761.54,32.94,761.54,29.82C761.54,26.939999999999998,759.2,24.78,755.72,24.78C752.24,24.78,749.9,27.060000000000002,749.9,30C749.9,32.94,752.24,35.22,755.72,35.22ZM751.04,72L760.4,72L760.4,39.72L751.04,39.72L751.04,72Z" fill="#000000" fill-opacity="1"/></g></g></svg>